Coordinates
version=1
nRows=21
nColumns=12
inDegrees=yes

Units are S.I. units (second, meters, Newtons, ...)
Angles are in degrees

endheader
time	SC_y	SC_z	SC_x	AC_y	AC_z	AC_x	GH_y	GH_z	GH_yy	EL_x	PS_y
       0.0              -43.47          15.76          10.59          31.66         -17.49          10.22          15.81          84.68         -144.9          38.54          117.7
   0.04334              -43.46          15.76          10.59          31.66         -17.48          10.22           15.8          84.68         -144.9          38.55          117.7
   0.08669              -43.46          15.76          10.59          31.66         -17.48          10.22           15.8          84.68         -144.9          38.56          117.7
      0.13              -43.46          15.76          10.59          31.66         -17.48          10.22          15.79          84.68         -144.9          38.57          117.7
    0.1734              -43.46          15.75          10.59          31.66         -17.48          10.21          15.78          84.68         -144.8          38.58          117.7
    0.2167              -43.46          15.75           10.6          31.66         -17.48          10.21          15.77          84.68         -144.8          38.59          117.8
    0.2601              -43.46          15.75           10.6          31.66         -17.48          10.21          15.76          84.68         -144.8           38.6          117.8
    0.3034              -43.46          15.75           10.6          31.66         -17.48           10.2          15.75          84.67         -144.7          38.61          117.8
    0.3468              -43.46          15.75           10.6          31.66         -17.48           10.2          15.74          84.67         -144.7          38.62          117.8
    0.3901              -43.45          15.74          10.61          31.66         -17.48           10.2          15.72          84.67         -144.6          38.63          117.8
    0.4334              -43.45          15.74          10.61          31.66         -17.48          10.19          15.71          84.67         -144.6          38.64          117.8
    0.4768              -43.45          15.74          10.61          31.66         -17.48          10.19           15.7          84.67         -144.5          38.66          117.8
    0.5201              -43.45          15.74          10.61          31.66         -17.47          10.19          15.68          84.67         -144.5          38.68          117.8
    0.5635              -43.45          15.73          10.62          31.66         -17.47          10.18          15.66          84.67         -144.4          38.69          117.8
    0.6068              -43.44          15.73          10.62          31.66         -17.47          10.18          15.65          84.67         -144.3          38.71          117.9
    0.6502              -43.44          15.73          10.63          31.66         -17.47          10.17          15.63          84.66         -144.3          38.73          117.9
    0.6935              -43.44          15.72          10.63          31.66         -17.47          10.17          15.61          84.66         -144.2          38.75          117.9
    0.7369              -43.43          15.72          10.63          31.65         -17.46          10.16          15.58          84.66         -144.1          38.78          117.9
    0.7802              -43.43          15.71          10.64          31.65         -17.46          10.15          15.56          84.66         -144.0           38.8          117.9
    0.8235              -43.43          15.71          10.65          31.65         -17.46          10.15          15.53          84.66         -143.9          38.83          118.0
    0.8669              -43.42           15.7          10.65          31.65         -17.46          10.14           15.5          84.65         -143.8          38.86          118.0
